<mxfile host="app.diagrams.net" modified="2023-07-20T20:51:09.395Z" agent="Mozilla/5.0 (Windows NT 10.0; Win64; x64) AppleWebKit/537.36 (KHTML, like Gecko) Chrome/115.0.0.0 Safari/537.36" version="21.6.3" etag="fbk3qRIlPA44c-JGaJRg" type="github">
  <diagram name="Page-1" id="d8mH9gLxrzP0vD8n4YJa">
    <mxGraphModel>
      <root>
        <mxCell id="0" />
        <mxCell id="1" parent="0" />
      </root>
    </mxGraphModel>
  </diagram>
</mxfile>
